<svg width="244" height="201" viewBox="0 0 244 201" fill="none" xmlns="http://www.w3.org/2000/svg">
<g id="Union">
<mask id="path-1-inside-1_224_694" fill="white">
<path fill-rule="evenodd" clip-rule="evenodd" d="M195.167 19.9825L180 0L164.833 19.9825H15C6.71573 19.9825 0 26.6982 0 34.9825V186C0 194.284 6.71573 201 15 201H229C237.284 201 244 194.284 244 186V34.9825C244 26.6982 237.284 19.9825 229 19.9825H195.167Z"/>
</mask>
<path fill-rule="evenodd" clip-rule="evenodd" d="M195.167 19.9825L180 0L164.833 19.9825H15C6.71573 19.9825 0 26.6982 0 34.9825V186C0 194.284 6.71573 201 15 201H229C237.284 201 244 194.284 244 186V34.9825C244 26.6982 237.284 19.9825 229 19.9825H195.167Z" fill="white"/>
<path d="M180 0L180.797 -0.604592L180 -1.65401L179.203 -0.604592L180 0ZM195.167 19.9825L194.371 20.587L194.671 20.9825H195.167V19.9825ZM164.833 19.9825V20.9825H165.329L165.629 20.587L164.833 19.9825ZM179.203 0.604592L194.371 20.587L195.964 19.3779L180.797 -0.604592L179.203 0.604592ZM165.629 20.587L180.797 0.604592L179.203 -0.604592L164.036 19.3779L165.629 20.587ZM15 20.9825H164.833V18.9825H15V20.9825ZM1 34.9825C1 27.2505 7.26801 20.9825 15 20.9825V18.9825C6.16344 18.9825 -1 26.1459 -1 34.9825H1ZM1 186V34.9825H-1V186H1ZM15 200C7.26801 200 1 193.732 1 186H-1C-1 194.837 6.16344 202 15 202V200ZM229 200H15V202H229V200ZM243 186C243 193.732 236.732 200 229 200V202C237.837 202 245 194.837 245 186H243ZM243 34.9825V186H245V34.9825H243ZM229 20.9825C236.732 20.9825 243 27.2505 243 34.9825H245C245 26.1459 237.837 18.9825 229 18.9825V20.9825ZM195.167 20.9825H229V18.9825H195.167V20.9825Z" fill="#363636" mask="url(#path-1-inside-1_224_694)"/>
</g>
</svg>
